<?xml version="1.0" standalone="no"?>
<!DOCTYPE svg PUBLIC "-//W3C//DTD SVG 20010904//EN"
 "http://www.w3.org/TR/2001/REC-SVG-20010904/DTD/svg10.dtd">
<svg version="1.0" xmlns="http://www.w3.org/2000/svg"
 width="3402.000000pt" height="1433.000000pt" viewBox="0 0 3402.000000 1433.000000"
 preserveAspectRatio="xMidYMid meet">

<g transform="translate(0.000000,1433.000000) scale(0.100000,-0.100000)"
fill="#000000" stroke="none">
<path d="M14905 11870 c-143 -31 -402 -87 -575 -124 -173 -37 -448 -96 -610
-130 -162 -35 -345 -74 -407 -86 -61 -13 -117 -26 -124 -31 -14 -8 -14 -9 66
-424 25 -132 72 -381 105 -553 33 -171 86 -453 119 -625 33 -171 87 -458 121
-637 34 -179 86 -452 116 -608 30 -155 59 -319 64 -364 11 -93 0 -224 -25
-308 -32 -104 -120 -260 -200 -352 -42 -49 -79 -88 -83 -88 -4 0 -32 -20 -62
-45 -99 -81 -250 -150 -395 -180 -135 -28 -414 -16 -459 19 -15 11 -39 126
-175 841 -34 176 -86 448 -116 605 -29 157 -59 314 -65 350 -6 36 -36 193 -66
350 -30 157 -64 335 -75 395 -17 91 -28 121 -60 172 -21 34 -39 65 -39 67 0 3
-24 43 -53 88 -29 46 -70 112 -90 148 -21 36 -52 88 -69 115 -109 174 -158
255 -158 261 0 3 -15 29 -34 57 -19 29 -64 102 -100 164 -36 62 -76 123 -89
137 l-22 25 -165 -35 c-157 -34 -302 -65 -1025 -219 -733 -156 -837 -180 -843
-194 -3 -7 4 -64 16 -125 11 -61 39 -208 62 -326 127 -669 150 -789 155 -825
4 -22 33 -177 65 -345 32 -168 86 -449 119 -625 33 -176 83 -434 109 -572 27
-139 47 -253 46 -253 -7 0 -221 352 -237 390 -4 8 -27 47 -52 85 -25 39 -52
84 -60 100 -11 25 -57 97 -130 209 -12 17 -23 15 -385 -63 -124 -27 -245 -52
-270 -55 -25 -4 -157 -31 -295 -61 -298 -64 -573 -123 -825 -175 -102 -21
-205 -43 -230 -49 -78 -18 -75 -22 -94 92 -10 56 -42 226 -71 377 -30 151 -59
304 -65 340 -6 36 -38 202 -70 370 -32 168 -86 447 -119 620 -179 947 -170
903 -209 969 -21 34 -79 132 -131 219 -52 86 -123 203 -157 260 -35 57 -64
106 -64 108 0 3 -22 40 -48 82 -72 114 -162 263 -202 334 -30 54 -39 63 -60
60 -28 -3 -448 -92 -865 -182 -148 -33 -295 -63 -325 -69 -30 -5 -158 -33
-285 -61 -126 -28 -264 -58 -305 -65 -41 -8 -106 -21 -145 -29 -38 -9 -79 -18
-91 -21 -19 -4 -20 -9 -13 -52 8 -51 88 -475 170 -898 28 -143 59 -310 69
-371 11 -62 42 -226 69 -365 28 -140 53 -272 56 -294 4 -22 31 -166 60 -320
30 -154 57 -298 60 -320 4 -22 35 -188 70 -370 79 -407 165 -858 245 -1285 33
-179 89 -476 125 -660 35 -184 78 -414 95 -510 35 -195 45 -220 156 -392 134
-208 184 -287 184 -291 0 -3 28 -48 63 -101 34 -52 88 -137 120 -188 161 -257
206 -323 218 -321 14 2 175 36 699 149 146 31 297 63 335 70 39 7 165 33 280
59 116 25 244 52 285 60 41 7 137 28 213 45 76 17 233 51 350 75 277 57 540
113 872 185 149 32 288 62 310 65 22 4 141 29 265 57 124 27 259 56 300 63 41
7 176 36 300 63 124 28 246 53 273 57 26 4 49 11 52 15 3 4 -20 133 -49 286
-30 154 -80 412 -111 574 -31 162 -59 303 -62 313 -11 40 15 11 67 -74 30 -49
78 -126 105 -169 28 -44 79 -127 115 -184 36 -58 97 -155 135 -215 39 -61 93
-147 120 -191 28 -45 72 -116 99 -158 27 -42 61 -97 76 -122 105 -178 361
-441 595 -611 278 -202 703 -391 1040 -464 66 -14 139 -30 162 -35 93 -22 369
-51 533 -57 569 -19 1246 141 1720 408 41 23 93 52 115 64 43 24 268 172 346
227 142 103 373 316 520 483 399 450 640 1033 639 1543 0 142 -16 260 -70 542
-22 118 -68 355 -100 525 -80 417 -240 1256 -361 1890 -33 176 -74 390 -90
475 l-30 155 -76 130 c-41 72 -107 184 -145 250 -39 66 -80 138 -92 160 -12
22 -45 78 -73 125 -28 47 -75 128 -105 180 -30 52 -64 111 -76 130 -11 19 -36
61 -54 93 -30 53 -35 57 -68 56 -19 -1 -152 -27 -295 -59z"/>
<path d="M25830 10154 c-221 -42 -364 -81 -484 -134 -319 -142 -570 -439 -656
-776 -22 -84 -44 -248 -37 -267 2 -7 5 -16 5 -21 0 -5 4 -12 9 -15 5 -3 20
-24 33 -46 13 -22 30 -46 37 -53 7 -8 11 -17 8 -22 -3 -5 -1 -10 3 -12 5 -1
21 -73 37 -158 26 -149 54 -268 108 -470 27 -98 127 -381 151 -428 27 -51 170
-169 261 -215 l31 -15 -4 182 c-3 107 0 218 7 270 13 95 56 276 68 285 5 3 29
49 55 101 80 162 219 320 378 431 94 65 132 86 231 124 183 72 335 106 540
120 173 13 407 -33 552 -107 22 -11 41 -17 44 -15 7 8 -36 231 -59 305 -81
264 -198 470 -351 619 -106 103 -225 182 -357 234 -176 71 -224 80 -415 84
-93 2 -181 1 -195 -1z"/>
<path d="M18590 10125 c-114 -18 -362 -73 -371 -82 -9 -10 13 -105 79 -333 28
-96 80 -281 115 -410 36 -129 92 -334 126 -455 33 -121 65 -238 69 -260 5 -22
34 -132 65 -245 30 -113 77 -288 103 -389 l48 -183 51 6 c27 3 87 15 132 27
79 21 82 23 78 48 -5 26 -91 475 -167 869 -24 125 -37 216 -32 221 15 14 293
72 419 87 152 18 241 18 386 0 125 -16 212 -36 290 -66 45 -18 50 -18 56 -4
10 28 -25 285 -52 379 -127 438 -493 734 -985 795 -112 13 -305 11 -410 -5z"/>
<path d="M2580 9438 c-173 -38 -463 -101 -645 -140 -800 -171 -760 -161 -763
-186 -2 -13 23 -164 56 -335 78 -404 112 -583 223 -1167 44 -230 50 -246 139
-385 68 -106 250 -398 293 -470 17 -27 45 -72 63 -100 17 -27 73 -115 122
-195 50 -80 97 -153 104 -164 13 -17 22 -16 243 32 127 28 255 55 285 61 30 5
168 35 305 65 138 30 298 65 357 76 59 11 207 43 329 70 122 28 231 50 241 50
25 0 24 7 -27 267 -24 125 -51 266 -59 313 -22 125 -153 801 -212 1095 -11 53
-29 95 -77 175 -35 58 -99 166 -142 240 -43 74 -101 174 -129 221 -28 48 -58
100 -68 115 -9 16 -53 92 -99 169 -45 77 -97 168 -116 203 -33 59 -36 62 -71
61 -20 -1 -179 -32 -352 -71z"/>
<path d="M31840 9440 c-168 -37 -458 -100 -645 -140 -790 -168 -770 -163 -773
-188 -2 -13 23 -164 57 -335 33 -172 69 -359 79 -417 11 -58 39 -202 61 -320
23 -118 60 -312 82 -430 44 -230 50 -246 139 -385 68 -106 250 -398 293 -470
17 -27 45 -72 63 -100 17 -27 73 -115 122 -195 50 -80 97 -153 104 -164 13
-17 22 -16 243 32 127 28 255 55 285 61 30 5 168 35 305 65 138 30 298 65 357
76 59 11 207 43 329 70 122 28 231 50 241 50 25 0 24 7 -27 267 -24 125 -51
266 -59 313 -20 119 -160 842 -212 1095 -11 53 -29 95 -77 175 -35 58 -99 166
-142 240 -43 74 -101 174 -129 221 -28 48 -58 100 -68 115 -9 16 -53 92 -99
169 -45 77 -97 168 -116 203 -33 59 -36 62 -71 61 -20 -1 -174 -31 -342 -69z"/>
<path d="M22362 8840 c0 -14 2 -19 5 -12 2 6 2 18 0 25 -3 6 -5 1 -5 -13z"/>
<path d="M29505 8633 c-14 -117 -56 -359 -70 -398 -7 -22 -34 -103 -59 -181
-40 -124 -80 -225 -142 -359 -29 -64 -171 -304 -221 -375 -130 -185 -331 -400
-530 -567 -578 -485 -1343 -808 -2293 -968 -427 -72 -1027 -80 -1420 -19 -624
97 -1158 350 -1559 738 -75 73 -220 235 -278 312 -24 30 62 -115 119 -204 18
-27 60 -94 93 -147 33 -53 88 -140 121 -193 34 -53 102 -162 152 -242 198
-318 262 -402 461 -600 223 -222 407 -355 685 -490 143 -70 171 -81 376 -151
172 -59 468 -121 715 -150 151 -17 546 -23 725 -10 256 18 654 79 900 138 166
39 476 129 580 169 52 20 110 40 129 46 54 16 349 146 419 184 34 20 88 48
120 64 69 34 270 157 368 226 337 234 644 546 841 853 86 134 193 350 252 506
87 235 160 561 164 735 2 70 0 78 -30 122 -18 26 -33 52 -33 58 0 7 -9 23 -20
37 -11 14 -20 31 -20 38 0 6 -14 27 -30 45 -17 19 -28 40 -26 46 3 7 -2 15 -9
18 -14 5 -50 73 -47 89 1 4 -2 7 -7 7 -5 0 -14 14 -20 30 -5 17 -15 30 -21 30
-6 0 -8 5 -5 10 3 6 2 10 -4 10 -6 0 -13 11 -17 25 -3 14 -9 25 -13 25 -3 0
-17 21 -31 48 -13 26 -31 54 -40 62 -24 23 -50 67 -50 85 0 8 -4 15 -10 15 -5
0 -10 6 -10 14 0 8 -7 22 -16 30 -9 9 -17 23 -18 30 -1 8 -14 30 -29 50 -16
20 -26 36 -23 36 3 0 -6 11 -18 25 -13 14 -27 37 -31 52 -3 14 -17 40 -30 58
-14 17 -22 35 -18 38 3 4 1 7 -5 7 -6 0 -14 -26 -17 -57z"/>
<path d="M22363 8440 c0 -30 2 -43 4 -27 2 15 2 39 0 55 -2 15 -4 2 -4 -28z"/>
<path d="M22372 8295 c0 -16 2 -22 5 -12 2 9 2 23 0 30 -3 6 -5 -1 -5 -18z"/>
<path d="M22005 8188 c-141 -428 -368 -794 -694 -1118 -341 -337 -754 -590
-1241 -758 -246 -84 -361 -111 -1525 -357 -407 -86 -918 -194 -1135 -240 -217
-46 -419 -89 -447 -97 l-53 -13 70 -110 c38 -60 93 -148 122 -193 29 -46 83
-132 120 -190 37 -59 92 -145 121 -192 30 -47 91 -146 137 -220 46 -74 90
-142 99 -151 15 -15 28 -13 161 17 80 18 192 43 250 54 58 12 229 48 380 80
151 33 406 87 565 120 160 34 403 85 540 115 138 30 277 59 310 65 55 11 382
82 605 131 52 12 171 46 265 76 841 270 1473 778 1833 1471 68 132 100 208
158 377 18 55 37 111 42 125 7 19 1 40 -25 93 -19 38 -48 106 -65 150 -55 147
-79 202 -73 173 3 -16 35 -101 70 -190 48 -118 58 -153 41 -131 -13 17 -22 33
-19 37 2 5 -1 8 -7 8 -6 0 -8 5 -5 10 3 6 1 10 -5 10 -6 0 -8 5 -5 10 3 6 2
10 -3 10 -5 0 -16 15 -23 33 -7 17 -19 38 -27 46 -7 7 -21 31 -30 52 -9 22
-20 39 -24 39 -12 0 -48 77 -40 85 4 5 1 5 -5 1 -8 -4 -13 -2 -13 7 0 8 -9 24
-20 37 -11 12 -17 26 -15 30 3 4 -2 10 -10 14 -8 3 -15 15 -15 26 0 11 -4 20
-10 20 -5 0 -18 17 -28 38 -26 53 -46 86 -56 93 -10 7 -42 65 -81 146 -14 28
-32 57 -40 63 -8 7 -15 19 -15 26 0 8 -3 14 -8 14 -4 0 -13 9 -20 21 -10 16
-11 19 -1 13 7 -4 2 8 -12 27 -13 19 -29 43 -35 53 -20 38 -32 26 -59 -56z"/>
<path d="M22382 8235 c0 -16 2 -22 5 -12 2 9 2 23 0 30 -3 6 -5 -1 -5 -18z"/>
<path d="M22391 8164 c0 -11 3 -14 6 -6 3 7 2 16 -1 19 -3 4 -6 -2 -5 -13z"/>
<path d="M22401 8104 c0 -11 3 -14 6 -6 3 7 2 16 -1 19 -3 4 -6 -2 -5 -13z"/>
<path d="M22412 8050 c0 -14 2 -19 5 -12 2 6 2 18 0 25 -3 6 -5 1 -5 -13z"/>
<path d="M22422 8000 c0 -14 2 -19 5 -12 2 6 2 18 0 25 -3 6 -5 1 -5 -13z"/>
<path d="M22432 7950 c0 -14 2 -19 5 -12 2 6 2 18 0 25 -3 6 -5 1 -5 -13z"/>
<path d="M22441 7904 c0 -11 3 -14 6 -6 3 7 2 16 -1 19 -3 4 -6 -2 -5 -13z"/>
<path d="M22451 7864 c0 -11 3 -14 6 -6 3 7 2 16 -1 19 -3 4 -6 -2 -5 -13z"/>
<path d="M22461 7824 c0 -11 3 -14 6 -6 3 7 2 16 -1 19 -3 4 -6 -2 -5 -13z"/>
<path d="M22471 7784 c0 -11 3 -14 6 -6 3 7 2 16 -1 19 -3 4 -6 -2 -5 -13z"/>
<path d="M22482 7745 c0 -11 3 -29 8 -40 11 -25 11 1 0 35 -6 20 -8 21 -8 5z"/>
<path d="M22501 7670 c0 -8 4 -22 9 -30 12 -18 12 -2 0 25 -6 13 -9 15 -9 5z"/>
</g>
</svg>
